Coordinates
version=1
nRows=10
nColumns=63
inDegrees=yes

Units are S.I. units (second, meters, Newtons, ...)
If the header above contains a line with 'inDegrees', this indicates whether rotational values are in degrees (yes) or radians (no).

endheader
time	pelvis_tilt	pelvis_list	pelvis_rotation	pelvis_tx	pelvis_ty	pelvis_tz	hip_flexion_r	hip_adduction_r	hip_rotation_r	knee_angle_r	knee_angle_r_beta	ankle_angle_r	subtalar_angle_r	mtp_angle_r	hip_flexion_l	hip_adduction_l	hip_rotation_l	knee_angle_l	knee_angle_l_beta	ankle_angle_l	subtalar_angle_l	mtp_angle_l	L5_S1_Flex_Ext	L5_S1_Lat_Bending	L5_S1_axial_rotation	L4_L5_Flex_Ext	L4_L5_Lat_Bending	L4_L5_axial_rotation	L3_L4_Flex_Ext	L3_L4_Lat_Bending	L3_L4_axial_rotation	L2_L3_Flex_Ext	L2_L3_Lat_Bending	L2_L3_axial_rotation	L1_L2_Flex_Ext	L1_L2_Lat_Bending	L1_L2_axial_rotation	L1_T12_Flex_Ext	L1_T12_Lat_Bending	L1_T12_axial_rotation	Abs_r3	Abs_r2	Abs_r1	Abs_t1	Abs_t2	neck_flexion	neck_bending	neck_rotation	arm_flex_r	arm_add_r	arm_rot_r	elbow_flex_r	pro_sup_r	wrist_flex_r	wrist_dev_r	arm_flex_l	arm_add_l	arm_rot_l	elbow_flex_l	pro_sup_l	wrist_flex_l	wrist_dev_l
      2.92592593	      2.45762459	     -8.10353881	     98.10665489	      0.31614224	      0.79674168	      0.61330373	      4.87567414	      5.54689584	     -2.75068618	      9.33433321	      0.16291485	     19.86287648	    -14.25629208	      0.00000000	      9.11605310	     -5.35398619	     13.32409527	     15.90158751	      0.27753506	     26.94259623	     -9.85038340	      0.00000000	     -0.02727337	      0.03893686	      3.79390011	     -0.05064938	      0.05178602	      4.03101887	     -0.04480743	      0.09467107	      4.03101887	     -0.03117074	      0.09467107	      3.31966260	     -0.02532605	      0.07940004	      3.08254384	     -0.01558401	      0.06031319	      2.84542508	     -0.19481098	      0.44046150	     21.10053425	      0.00000000	      0.00000000	     17.86771109	     -2.37983350	    -10.48108912	     72.76216605	    -11.32975408	     37.65824219	     36.58973824	     30.29842011	     -4.65530192	      3.69517896	     59.73216459	    -17.47971511	     18.35479768	     66.95822496	     63.28173767	    -15.72048968	     -6.71117797
      2.94444444	      2.58160355	     -8.34845370	     98.67244988	      0.31506673	      0.79702665	      0.61224279	      4.45860655	      5.64317660	     -2.78972501	      8.22666565	      0.14358240	     18.94577293	    -14.59089149	      0.00000000	      9.02345804	     -5.43213548	     13.63148368	     15.14874393	      0.26439546	     26.76970913	     -9.72185984	      0.00000000	     -0.02575127	      0.00892830	      3.89055456	     -0.04782268	      0.01187463	      4.13371422	     -0.04230676	      0.02170826	      4.13371422	     -0.02943113	      0.02170826	      3.40423524	     -0.02391263	      0.01820658	      3.16107558	     -0.01471428	      0.01382993	      2.91791592	     -0.18393874	      0.10099867	     21.63809728	      0.00000000	      0.00000000	     18.57247461	     -3.42444149	    -11.29397469	     73.94731623	    -13.45709787	     38.56305323	     32.71685163	     29.82774922	     -7.32164059	      3.72090303	     61.71094464	    -18.88514804	     15.06968446	     63.50788448	     85.55405543	    -22.45017188	     -3.08177714
      2.96296296	      2.60774537	     -8.56933694	     99.45350322	      0.31389309	      0.79707243	      0.61086315	      4.05407610	      5.63372732	     -3.07151873	      7.25330751	      0.12659410	     18.25517406	    -14.86974093	      0.00000000	      8.89800204	     -5.39779649	     14.15646137	     14.35149880	      0.25048091	     26.85002194	     -9.33440430	      0.00000000	     -0.03743857	     -0.03332652	      3.84720160	     -0.06952717	     -0.04432427	      4.08765170	     -0.06150783	     -0.08103010	      4.08765170	     -0.04278854	     -0.08103010	      3.36630140	     -0.03476546	     -0.06795944	      3.12585130	     -0.02139240	     -0.05162278	      2.88540120	     -0.26741998	     -0.37699627	     21.39698114	      0.00000000	      0.00000000	     19.31480849	     -4.43536726	    -12.59493672	     75.56926269	    -15.62672479	     42.86922941	     28.50644341	     34.32673373	    -11.10916378	      3.26911734	     65.23461480	    -21.85516828	     18.61396749	     58.55095354	     88.48119961	    -34.14100466	     -4.69248323
      2.98148148	      2.57023601	     -8.82395724	    100.22566451	      0.31258931	      0.79693885	      0.60924883	      3.72551780	      5.55330403	     -3.37540675	      6.40855177	      0.11185033	     17.73242465	    -15.15985081	      0.00000000	      8.78567221	     -5.28496691	     14.70089459	     13.55327572	      0.23654929	     27.05978360	     -8.82932038	      0.00000000	     -0.05083397	     -0.09006952	      3.71100347	     -0.09440377	     -0.11979247	      3.94294119	     -0.08351513	     -0.21899504	      3.94294119	     -0.05809815	     -0.21899504	      3.24712804	     -0.04720443	     -0.18366977	      3.01519032	     -0.02904653	     -0.13951769	      2.78325261	     -0.36310197	     -1.01888446	     20.63948802	      0.00000000	      0.00000000	     20.10171610	     -4.78709388	    -14.03947357	     77.47161507	    -17.60321378	     49.98450808	     23.73711135	     44.66477358	    -14.19452203	      4.37580607	     69.68702089	    -25.53838504	     25.92951146	     51.81779589	     88.77600725	    -48.24528701	     -9.20678995
      3.00000000	      2.56488330	     -9.09085746	    101.01219136	      0.31081114	      0.79664035	      0.60731996	      3.43850524	      5.48031142	     -3.77241389	      5.64598964	      0.09854111	     17.40301641	    -15.34100598	      0.00000000	      8.64551398	     -5.17784683	     15.34232955	     12.71392341	      0.22189982	     27.21418559	     -8.38827708	      0.00000000	     -0.06771010	     -0.13481079	      3.43386725	     -0.12574443	     -0.17929834	      3.64848395	     -0.11124093	     -0.32777894	      3.64848395	     -0.07738588	     -0.32777894	      3.00463384	     -0.06287560	     -0.27490615	      2.79001714	     -0.03868955	     -0.20882191	      2.57540043	     -0.48364649	     -1.52500656	     19.09813946	      0.00000000	      0.00000000	     21.17021556	     -4.69342897	    -14.42929687	     80.16379645	    -18.67712737	     63.17573808	     17.92319290	     58.58831974	    -15.09109384	      7.57942205	     72.57246351	    -30.32476239	     31.54831566	     47.16690427	     88.76906940	    -56.52070475	    -11.85119459
      3.01851852	      2.48268981	     -9.56672419	    102.12930301	      0.30868535	      0.79649303	      0.60464806	      3.33750053	      5.27584438	     -4.58038544	      4.92675959	      0.08598818	     16.99185797	    -15.47881509	      0.00000000	      8.67563492	     -4.93175956	     16.13430200	     11.80552116	      0.20604521	     26.87256825	     -7.86673315	      0.00000000	     -0.06459518	     -0.19967675	      2.97046170	     -0.11995971	     -0.26557008	      3.15611556	     -0.10612342	     -0.48549405	      3.15611556	     -0.07382583	     -0.48549405	      2.59915399	     -0.05998309	     -0.40718083	      2.41350013	     -0.03690969	     -0.30929928	      2.22784628	     -0.46139692	     -2.25878332	     16.52081684	      0.00000000	      0.00000000	     22.62500778	     -3.85907585	    -13.79010666	     83.74765896	    -14.88123008	    150.05535717	      1.77083360	     16.83912647	     -3.74586824	      8.56302091	     72.39710074	    -36.66316944	     32.23621566	     46.40007861	     88.79028629	    -58.20464084	    -13.42640508
      3.03703704	      2.79136159	    -10.07254656	    103.24898994	      0.30523397	      0.79586221	      0.60190992	      3.42521728	      5.37030975	     -5.54088717	      4.37981661	      0.07644222	     16.66652061	    -15.54700120	      0.00000000	      8.85174669	     -4.97821251	     17.03265437	     11.04096583	      0.19270121	     26.47921795	     -7.45778881	      0.00000000	     -0.04563685	     -0.18177910	      2.48099227	     -0.08475219	     -0.24176620	      2.63605429	     -0.07497678	     -0.44197771	      2.63605429	     -0.05215835	     -0.44197771	      2.17086824	     -0.04237838	     -0.37068394	      2.01580622	     -0.02607689	     -0.28157583	      1.86074420	     -0.32597943	     -2.05632155	     13.79853472	      0.00000000	      0.00000000	     24.35354960	     -3.66687268	    -11.93428428	     83.70013696	    -15.95403794	    154.77797859	      1.77143459	     27.22479918	     -0.31409344	     11.44045876	     68.57918682	    -43.38098077	     27.28729869	     47.65904939	     88.75921448	    -56.19487927	    -14.87558520
      3.05555556	      2.94700009	    -10.61330420	    104.30943420	      0.30196271	      0.79523328	      0.59871300	      3.60023638	      5.28870179	     -6.59050164	      4.02668078	      0.07027884	     16.68997357	    -15.34076493	      0.00000000	      8.98714799	     -4.83877114	     18.33656045	     10.28557291	      0.17951711	     25.78903403	     -7.66631582	      0.00000000	     -0.01267014	     -0.16192231	      1.91474139	     -0.02352972	     -0.21535667	      2.03441272	     -0.02081577	     -0.39369789	      2.03441272	     -0.01448070	     -0.39369789	      1.67539871	     -0.01176549	     -0.33019197	      1.55572738	     -0.00723972	     -0.25081765	      1.43605604	     -0.09050154	     -1.83169751	     10.64921717	      0.00000000	      0.00000000	     25.77346002	     -3.37094288	     -8.76896614	     83.29591214	    -16.25073922	    151.41693219	      1.99872568	     45.09323183	      4.29031121	     11.44031835	     60.93905299	    -50.13603109	     17.17333871	     49.77441937	     88.68273007	    -50.09679545	    -14.73223581
      3.07407407	      3.26464824	    -11.02184386	    105.48268908	      0.29794561	      0.79484976	      0.59562623	      3.74270263	      5.34325392	     -7.72620028	      3.77072037	      0.06581149	     16.92788630	    -15.05210386	      0.00000000	      9.10259724	     -4.86276815	     19.37082948	      9.63037458	      0.16808174	     25.27583904	     -7.35447246	      0.00000000	      0.03173023	     -0.09726820	      1.28848738	      0.05892621	     -0.12936671	      1.36901784	      0.05212959	     -0.23649791	      1.36901784	      0.03626448	     -0.23649791	      1.12742646	      0.02946469	     -0.19834932	      1.04689600	      0.01813065	     -0.15066844	      0.96636553	      0.22664585	     -1.10031735	      7.16618026	      0.00000000	      0.00000000	     26.68682735	     -3.32319108	     -4.96007239	     82.81985072	    -16.04461000	    158.08461035	      2.14834333	     48.75058622	      9.40282546	      9.82937561	     48.64171633	    -55.00353273	      0.45707169	     52.00951523	     88.50499592	    -39.14918515	    -13.54157281
      3.09259259	      3.51793836	    -11.58534733	    106.81401509	      0.29377157	      0.79366321	      0.59198679	      4.02183941	      5.29246493	     -8.70394373	      3.56105092	      0.06215206	     17.60008443	    -15.02439805	      0.00000000	      9.35279101	     -4.73950037	     20.71744610	      8.99543508	      0.15699996	     24.89547398	     -7.43344784	      0.00000000	      0.11336132	     -0.08486995	      0.44299514	      0.21052330	     -0.11287703	      0.47068234	      0.18624131	     -0.20635279	      0.47068234	      0.12956065	     -0.20635279	      0.38762075	      0.10526732	     -0.17306680	      0.35993355	      0.06477466	     -0.13146355	      0.33224636	      0.80972856	     -0.96006582	      2.46380609	      0.00000000	      0.00000000	     27.49521120	     -1.53802835	     -1.44864137	     81.90160257	    -14.63179754	    173.36855039	      2.00236492	     36.05767419	     13.13510520	      8.66747819	     33.53299971	    -58.94913765	    -30.45916952	     60.11101549	     89.29170729	     19.82137278	     32.31753808
